<svg width="43" height="36" viewBox="0 0 43 36" fill="none" xmlns="http://www.w3.org/2000/svg">
<path fill-rule="evenodd" clip-rule="evenodd" d="M18.1697 22.4776C18.0392 22.0052 17.8558 21.5442 17.6194 21.104L18.683 19.6014L16.5793 17.4509L15.0651 18.4734C14.6173 18.2156 14.1458 18.0139 13.6609 17.8684L13.3479 16.0385L10.3397 16.0053L9.98831 17.8184C9.50413 17.9494 9.03168 18.1358 8.58099 18.3779L7.07839 17.3143L4.92788 19.418L5.95042 20.9323C5.69153 21.3819 5.48923 21.8554 5.34363 22.3425L3.54736 22.6498L3.51423 25.6579L5.29378 26.0028C5.42905 26.5048 5.62393 26.9941 5.87857 27.4598L4.82295 28.9511L6.92661 31.1016L8.45227 30.0714C8.89938 30.3244 9.36967 30.5218 9.85297 30.6636L10.1586 32.4503L13.1668 32.4834L13.5136 30.6943C14.0037 30.5595 14.4816 30.3677 14.9368 30.1187L16.4282 31.1744L18.5787 29.0707L17.5484 27.5451C17.8004 27.0998 17.9972 26.6316 18.1388 26.1504L19.9592 25.839L19.9923 22.8308L18.1697 22.4776ZM9.35065 27.0662C10.9005 28.3843 13.2254 28.1965 14.5435 26.6466C15.8616 25.0968 15.6737 22.7719 14.1239 21.4538C12.5741 20.1357 10.2491 20.3236 8.93106 21.8734C7.61296 23.4232 7.80082 25.7481 9.35065 27.0662Z" fill="#323232"/>
<path fill-rule="evenodd" clip-rule="evenodd" d="M33.3486 4.08394C32.7125 3.81696 32.0429 3.61851 31.3501 3.49683L30.6954 1.28714C30.6482 1.12784 30.4939 1.02505 30.3287 1.04289L26.6888 1.43601C26.5237 1.45386 26.3948 1.58723 26.3827 1.75293L26.2164 4.03207C25.5414 4.30291 24.9078 4.64884 24.3247 5.05858L22.2801 3.94857C22.1341 3.8693 21.9522 3.90574 21.8481 4.03516L19.5523 6.88692C19.4481 7.01634 19.4513 7.20174 19.5599 7.32746L21.0719 9.07758C20.7953 9.7272 20.5902 10.4122 20.4657 11.1215L18.256 11.7761C18.0967 11.8233 17.9939 11.9776 18.0118 12.1428L18.4357 16.0679L21.0009 16.2552C21.2729 16.933 21.6206 17.569 22.0326 18.1541L20.9455 20.1565C20.8662 20.3025 20.9027 20.4843 21.0321 20.5885L23.8839 22.8843C24.0133 22.9885 24.1987 22.9853 24.3244 22.8767L26.0382 21.396C26.7112 21.6834 27.4222 21.8939 28.1589 22.0176L28.8081 24.2086C28.8553 24.3679 29.0096 24.4707 29.1748 24.4529L32.8147 24.0598C32.9799 24.0419 33.1087 23.9085 33.1208 23.7428L33.2885 21.4444C33.9577 21.1701 34.5855 20.8217 35.1631 20.4105L37.1535 21.4911C37.2995 21.5703 37.4813 21.5339 37.5855 21.4045L39.8813 18.5527C39.9855 18.4233 39.9822 18.2379 39.8736 18.1122L38.3841 16.3881C38.6616 15.7285 38.8655 15.0329 38.9865 14.3126L41.1775 13.6635C41.3368 13.6163 41.4396 13.4619 41.4218 13.2968L41.0286 9.65688C41.0108 9.49169 40.8774 9.36287 40.7117 9.35078L38.4133 9.18302C38.1401 8.51667 37.7935 7.89128 37.3845 7.31571L38.488 5.28311C38.5673 5.1371 38.5308 4.95529 38.4014 4.8511L35.5496 2.5553C35.4202 2.45111 35.2348 2.45433 35.1091 2.56295L33.3486 4.08394ZM30.3002 18.1219C33.2663 17.8016 35.4111 15.1374 35.0908 12.1713C34.7704 9.20517 32.1062 7.06037 29.1401 7.38072C26.174 7.70108 24.0292 10.3653 24.3496 13.3314C24.6699 16.2975 27.3341 18.4423 30.3002 18.1219Z" fill="#323232"/>
</svg>
