<svg width="20" height="20" viewBox="0 0 20 20" fill="none" xmlns="http://www.w3.org/2000/svg">
<g opacity="0.35" clip-path="url(#clip0_1_3)">
<rect width="20" height="20" fill="#A50000"/>
<path fill-rule="evenodd" clip-rule="evenodd" d="M10 10.25V9H0V8H10V7H0V6H10V5H0V4H10V3H0V2H10V1H0V0H10.25H11V10H12V0H13V10H14V0H15V10H16V0H17V10H18V0H19V10H20V11H10V10.25ZM0 10H1V20H0V10ZM2 10H3V20H2V10ZM4 10H5V20H4V10ZM6 10H7V20H6V10ZM8 10H9V20H8V10ZM10 12H20V13H10V12ZM10 14H20V15H10V14ZM10 16H20V17H10V16ZM10 18H20V19H10V18Z" fill="#DC0922" fill-opacity="0.65"/>
<g style="mix-blend-mode:hard-light">
<rect width="10" height="10" fill="#381047" fill-opacity="0.25"/>
</g>
<g style="mix-blend-mode:hard-light">
<rect x="10" y="10" width="10" height="10" fill="#381047" fill-opacity="0.25"/>
</g>
</g>
<defs>
<clipPath id="clip0_1_3">
<rect width="20" height="20" fill="white"/>
</clipPath>
</defs>
</svg>
